<?xml version="1.0" encoding="utf-8"?>
<!-- Svg Vector Icons : http://www.onlinewebfonts.com/icon -->
<!DOCTYPE svg PUBLIC "-//W3C//DTD SVG 1.1//EN" "http://www.w3.org/Graphics/SVG/1.1/DTD/svg11.dtd">
<svg version="1.1" xmlns="http://www.w3.org/2000/svg" xmlns:xlink="http://www.w3.org/1999/xlink" x="0px" y="0px" viewBox="0 0 1000 1000" enable-background="new 0 0 1000 1000" xml:space="preserve">
<metadata> Svg Vector Icons : http://www.onlinewebfonts.com/icon </metadata>
<g><path d="M880.4,440.7c-12.3,0-21.3,9.5-21.3,22.8v403.2c0,45-35.7,82-78.9,82H146.8c-21.4,0-45.6-9-63.7-24.2c-19.9-16.2-31.3-37.5-31.3-58.4v-635c0-21.3,11.4-44.1,31.3-62.6c19-18,42.8-29,64.1-29h341.4c12.8,0,22.8-9,22.8-21.3c0-12.3-10-20.8-22.8-20.8H147.2C70.3,97.3,10,156.1,10,231.1v635c0,36,13.7,67.9,39.9,90.6c24.7,22.3,59.3,34.2,97.3,34.2h633.9c37.1,0,67.9-11.9,89.3-33.7c21.3-22.3,32.3-53.6,32.3-91.1l-1-402.7C901.7,450.7,892.7,440.7,880.4,440.7z M966.3,136.2L862.8,32.3c-14.3-14.6-35.6-23.2-58.4-23.2c-21.8,0-43.2,8.6-58.4,22.8l-84.1,99.6L213.2,560.7l-29,251.3l8.1,7.2l245-33.2l428.8-449.1l100.2-81.1C997.7,224,998.1,167.5,966.3,136.2z M239.3,764.6l9.1-148l136.7,136.6L239.3,764.6z M830.5,313.6L420.7,726.2l-147.6-148l413.6-411.7l145.3,145.1L830.5,313.6z M935,221.1l-65.5,65.4L712.3,129.1l65.1-65.4c7.1-7.1,16.6-10.9,27-10.9c10.5,0,19.9,3.8,27.1,10.9L935,167.1C949.7,181.8,949.7,206.4,935,221.1z"/></g>
</svg>